# xmcd
#
# Track frame offsets:
#   150
#   15653
#   31574
#   42433
#   53979
#   67879
#   85239
#   97939
#   115017
#   127537
#   138426
#   149629
#   175443
#   186103
#   197838
#   210465
#   236038
#   246915
#   270465
#   284821
#   298204
#
# Disc length: 4161 seconds
#
# Revision: 0
# Processed by: cddbd v1.5.2PL0 Copyright (c) Steve Scherf et al.
# Submitted via: uFREEDB ActiveX Control 1.5
#
DISCID=37103f15
DTITLE=Arnaldo e Alexandre - ao vivo
DYEAR=2007
DGENRE=Country
TTITLE0=vem ficar comigo
TTITLE1=rabo de saia
TTITLE2=eu sem você
TTITLE3=ciúme exagerado
TTITLE4=te amo e não te quero
TTITLE5=só falta você
TTITLE6=hàbito
TTITLE7=madrugada
TTITLE8=o amor si vai
TTITLE9=ageite o trem ai
TTITLE10=oito segundos
TTITLE11=pout pourri 01
TTITLE12=anjo
TTITLE13=caso marcado
TTITLE14=eu sou peão
TTITLE15=pout pourri 02
TTITLE16=tadim tadim
TTITLE17=bagdá doce desejo
TTITLE18=vai e vem
TTITLE19=galera coração
TTITLE20=gata boiadeira
EXTD=
EXTT0=
EXTT1=
EXTT2=
EXTT3=
EXTT4=
EXTT5=
EXTT6=
EXTT7=
EXTT8=
EXTT9=
EXTT10=
EXTT11=
EXTT12=
EXTT13=
EXTT14=
EXTT15=
EXTT16=
EXTT17=
EXTT18=
EXTT19=
EXTT20=
PLAYORDER=
